<svg width="278" height="101" viewBox="352 253 278 101" fill="none" xmlns="http://www.w3.org/2000/svg">
  <!-- Palot Wordmark: "palot." -->
  <!-- Tight viewBox with ~10px horizontal padding, optical vertical centering -->
  <!-- Top 7.8px / Bottom 12.6px split compensates for p descender -->
  <path d="M612.104 330.768C609.8 330.768 607.944 330.096 606.536 328.752C605.192 327.408 604.52 325.712 604.52 323.664C604.52 321.552 605.192 319.824 606.536 318.48C607.944 317.136 609.8 316.464 612.104 316.464C614.408 316.464 616.232 317.136 617.576 318.48C618.984 319.824 619.688 321.552 619.688 323.664C619.688 325.712 618.984 327.408 617.576 328.752C616.232 330.096 614.408 330.768 612.104 330.768Z" fill="currentColor"/>
  <path d="M585.718 329C580.406 329 576.502 327.784 574.006 325.352C571.51 322.856 570.262 318.92 570.262 313.544V265.448H584.662V311.816C584.662 314.312 585.174 316.008 586.198 316.904C587.286 317.8 588.886 318.248 590.998 318.248H598.198V329H585.718ZM562.006 288.296V277.544H598.198V288.296H562.006Z" fill="currentColor"/>
  <path d="M530.922 330.152C525.674 330.152 521.098 329.064 517.194 326.888C513.29 324.648 510.25 321.512 508.074 317.48C505.898 313.448 504.81 308.712 504.81 303.272C504.81 297.832 505.898 293.128 508.074 289.16C510.25 285.128 513.29 281.992 517.194 279.752C521.098 277.512 525.674 276.392 530.922 276.392C536.17 276.392 540.746 277.512 544.65 279.752C548.554 281.992 551.594 285.128 553.77 289.16C555.946 293.128 557.034 297.832 557.034 303.272C557.034 308.712 555.946 313.448 553.77 317.48C551.594 321.512 548.554 324.648 544.65 326.888C540.746 329.064 536.17 330.152 530.922 330.152ZM530.922 319.112C534.506 319.112 537.29 317.736 539.274 314.984C541.258 312.168 542.25 308.264 542.25 303.272C542.25 298.28 541.258 294.408 539.274 291.656C537.29 288.84 534.506 287.432 530.922 287.432C527.338 287.432 524.554 288.84 522.57 291.656C520.586 294.408 519.594 298.28 519.594 303.272C519.594 308.264 520.586 312.168 522.57 314.984C524.554 317.736 527.338 319.112 530.922 319.112Z" fill="currentColor"/>
  <path d="M491.878 329C487.654 329 484.358 327.944 481.99 325.832C479.622 323.72 478.438 320.296 478.438 315.56V260.84H492.838V314.024C492.838 315.56 493.19 316.648 493.894 317.288C494.598 317.928 495.622 318.248 496.965 318.248H500.422V329H491.878Z" fill="currentColor"/>
  <path d="M437.639 330.152C432.327 330.152 427.975 328.936 424.583 326.504C421.255 324.008 419.591 320.552 419.591 316.136C419.591 311.592 420.999 308.104 423.815 305.672C426.695 303.176 430.919 301.352 436.487 300.2L453.095 296.936C453.095 293.608 452.327 291.112 450.791 289.448C449.319 287.72 447.175 286.856 444.359 286.856C441.607 286.856 439.463 287.496 437.927 288.776C436.391 289.992 435.399 291.816 434.951 294.248L420.455 293.576C421.415 287.944 423.943 283.688 428.039 280.808C432.199 277.864 437.639 276.392 444.359 276.392C452.039 276.392 457.799 278.216 461.639 281.864C465.543 285.512 467.495 290.856 467.495 297.896V315.464C467.495 316.936 467.719 317.928 468.167 318.44C468.679 318.888 469.415 319.112 470.375 319.112H471.815V329C471.367 329.128 470.631 329.256 469.607 329.384C468.647 329.512 467.687 329.576 466.727 329.576C464.679 329.576 462.759 329.224 460.967 328.52C459.239 327.816 457.831 326.632 456.743 324.968C455.655 323.24 455.111 320.808 455.111 317.672L456.359 318.632C455.719 320.936 454.567 322.952 452.903 324.68C451.303 326.408 449.191 327.752 446.567 328.712C444.007 329.672 441.031 330.152 437.639 330.152ZM441.095 320.264C443.463 320.264 445.543 319.816 447.335 318.92C449.127 317.96 450.535 316.584 451.559 314.792C452.583 313 453.095 310.888 453.095 308.456V305.96L441.383 308.456C439.079 308.904 437.319 309.672 436.103 310.76C434.951 311.784 434.375 313.128 434.375 314.792C434.375 316.52 434.951 317.864 436.103 318.824C437.255 319.784 438.919 320.264 441.095 320.264Z" fill="currentColor"/>
  <path d="M362 341.4V275.544H375.824L376.112 286.392L374.96 285.912C376.24 282.2 378.32 279.352 381.2 277.368C384.08 275.384 387.44 274.392 391.28 274.392C396.08 274.392 400.08 275.576 403.28 277.944C406.48 280.312 408.88 283.544 410.48 287.64C412.144 291.672 412.976 296.216 412.976 301.272C412.976 306.264 412.144 310.808 410.48 314.904C408.88 319 406.448 322.232 403.184 324.6C399.984 326.968 395.984 328.152 391.184 328.152C388.688 328.152 386.352 327.704 384.176 326.808C382 325.848 380.112 324.536 378.512 322.872C376.976 321.208 375.856 319.224 375.152 316.92L376.4 316.152V341.4H362ZM387.248 317.112C390.64 317.112 393.296 315.704 395.216 312.888C397.2 310.072 398.192 306.2 398.192 301.272C398.192 296.344 397.2 292.472 395.216 289.656C393.296 286.84 390.64 285.432 387.248 285.432C385.008 285.432 383.056 286.04 381.392 287.256C379.792 288.408 378.544 290.168 377.648 292.536C376.816 294.904 376.4 297.816 376.4 301.272C376.4 304.728 376.816 307.64 377.648 310.008C378.544 312.376 379.792 314.168 381.392 315.384C383.056 316.536 385.008 317.112 387.248 317.112Z" fill="currentColor"/>
</svg>
